<svg xmlns="http://www.w3.org/2000/svg" xmlns:xlink="http://www.w3.org/1999/xlink" viewBox="0 0 430 447.86"><defs><style>.cls-1{fill:#288c68;}.cls-2{fill:url(#linear-gradient);}.cls-3{fill:url(#linear-gradient-2);}</style><linearGradient id="linear-gradient" x1="4.01" y1="86.89" x2="425.99" y2="86.89" gradientUnits="userSpaceOnUse"><stop offset="0.11" stop-color="#f2f2f2"/><stop offset="0.37" stop-color="#e6e6e6"/><stop offset="0.9" stop-color="#3bc497"/></linearGradient><linearGradient id="linear-gradient-2" y1="356.32" x2="430" y2="356.32" gradientUnits="userSpaceOnUse"><stop offset="0.12" stop-color="#3bc497"/><stop offset="0.67" stop-color="#e6e6e6"/><stop offset="0.94" stop-color="#fff"/></linearGradient></defs><title>BCA Color</title><g id="Layer_2" data-name="Layer 2"><g id="Layer_1-2" data-name="Layer 1"><path class="cls-1" d="M223,105.78a95.5,95.5,0,1,0,95.5,95.5A95.5,95.5,0,0,0,223,105.78Zm3.41,27.53L259.61,120a88.84,88.84,0,0,1,10.91,5.88l.08,0a90.18,90.18,0,0,1,9.83,7.21l.27.23q2.08,1.78,4.07,3.69l.5.48c1.39,1.35,2.72,2.74,4,4.18l.32.37c1.13,1.27,2.22,2.59,3.28,3.93.26.31.51.63.76.95q1.73,2.24,3.32,4.57l-6.62,28.13-32.57,10.86-31.36-25.1ZM152.35,147c.24-.32.5-.64.75-.95q1.58-2,3.25-3.89l.35-.41q1.94-2.15,4-4.17c.16-.15.32-.32.49-.46,1.3-1.26,2.65-2.48,4-3.66l.32-.27a89.52,89.52,0,0,1,9.73-7.16l.13-.08a88.58,88.58,0,0,1,10.84-5.88l33.35,13.21v32.15l-31.37,25.1-32.56-10.84L149,151.59Q150.63,149.25,152.35,147Zm-3.84,103.1c-.93-1.43-1.83-2.88-2.68-4.36l-.21-.36c-.85-1.48-1.65-3-2.41-4.5l0,0A91,91,0,0,1,139,231v0c-.56-1.6-1.08-3.23-1.56-4.87l-.17-.6c-.44-1.54-.83-3.1-1.19-4.67,0-.16-.07-.3-.1-.46a88.83,88.83,0,0,1-1.68-10.78l19.43-23.32,32.34,10.78,9.39,37.54L180,255.11Zm95.69,37.71c-1.59.4-3.23.74-4.86,1l-.69.13c-1.39.25-2.8.46-4.21.63l-1.12.15q-2,.22-4,.36l-1.24.1c-1.69.1-3.4.16-5.12.16-1.57,0-3.14,0-4.69-.12a5.29,5.29,0,0,1-.56-.05c-1.39-.08-2.76-.18-4.14-.32l-.16,0c-3-.33-6-.81-9-1.44L185.64,259l15.18-20.24h44.36l15.43,20.38Zm65.85-67.46c0,.15-.07.3-.1.45-.36,1.57-.75,3.13-1.19,4.67l-.17.61c-.48,1.64-1,3.26-1.56,4.86v0a88.26,88.26,0,0,1-4.19,9.87l0,0q-1.14,2.28-2.41,4.49l-.2.36c-.85,1.48-1.75,2.93-2.68,4.35l-31.41,5-15.53-20.5L260,197.05l32.34-10.78,19.43,23.32A87.37,87.37,0,0,1,310.05,220.38Z"/><path class="cls-2" d="M371.75,119.53l-49-84.88H286.87L252.22,0A52.83,52.83,0,0,1,214.5,15.78,52.84,52.84,0,0,1,177.28.5L143.12,34.65H107.25l-49,84.88L4,173.78H115.87a109,109,0,0,1,211.26,0H426Z"/><path class="cls-3" d="M309.73,264.78a109,109,0,0,1-176.46,0H0L58.25,323l49,84.87h35.87l39.52,39.52a53,53,0,0,1,64.28.44l40-40h35.87l49-84.87L430,264.78Z"/></g></g></svg>