<svg xmlns="http://www.w3.org/2000/svg" viewBox="0 0 512 512"><defs><style>.cls-1{fill:#41d8a6;}.cls-2{fill:#1a2b63;}.cls-3{fill:#eef6ff;}.cls-4{fill:#d9eafc;}</style></defs><title>bca-logo</title><g id="Layer_2" data-name="Layer 2"><g id="Layer_1-2" data-name="Layer 1"><circle class="cls-1" cx="245" cy="267" r="245"/><path class="cls-2" d="M179.31,298.58,15.9,491.77A3,3,0,0,0,20.13,496L213.29,332.6A187.08,187.08,0,0,1,179.31,298.58Z"/><path class="cls-2" d="M152.4,249.94,45.71,376.06a3,3,0,0,0,4.23,4.23L167.32,281A183,183,0,0,1,152.4,249.94Z"/><path class="cls-2" d="M233.66,346.26l-97.95,115.8a3,3,0,0,0,4.23,4.23L264.87,360.61A184.34,184.34,0,0,1,233.66,346.26Z"/><path class="cls-2" d="M326,371a184.83,184.83,0,0,1-32.55-2.87L215.71,460a3,3,0,0,0,4.23,4.22L330.26,371C328.84,371,327.42,371,326,371Z"/><path class="cls-2" d="M141,186c0-2.71.07-5.4.19-8.07L49.74,286A3,3,0,0,0,52,291a3,3,0,0,0,1.93-.71l89.28-75.51A185.39,185.39,0,0,1,141,186Z"/><circle class="cls-3" cx="326" cy="186" r="186"/><path class="cls-4" d="M161.51,272.88l32.85,5.2A185.14,185.14,0,0,1,170,186c0-3.19.09-6.36.24-9.51l-3.77-11.94-26.29,13.39h0c-.11,2.67-.18,5.36-.18,8.06a185.24,185.24,0,0,0,21.51,86.88Z"/><path class="cls-4" d="M269.58,21.27,258,12.84A186,186,0,0,0,196,53l4.82,30.43A186.77,186.77,0,0,1,269.58,21.27Z"/><path class="cls-4" d="M259.48,359.74h0A185.64,185.64,0,0,0,326,372c5.05,0,10.05-.21,15-.6a184.93,184.93,0,0,1-84.11-28Z"/><path class="cls-2" d="M485.67,164.1l26.13,13.31a185.41,185.41,0,0,0-55-123.61l-6.11,38.57L363.53,35,394,12.84a186.64,186.64,0,0,0-136.06,0L288.47,35,202.16,91.79,196,53a185.4,185.4,0,0,0-55.84,125l26.29-13.39,36.26,114.86-41.22-6.53a186.64,186.64,0,0,0,98,86.86l-4.34-27.4H396.71l-4.35,27.46A186.67,186.67,0,0,0,490.43,273l-41.19,6.53ZM437.13,281.44l-25.24,4-42.51-42.51,20.84-64.11,58.27-33.65,27.27,13.89Zm11.71-177.17L444,135.11l-56.07,32.37-56.39-41V58.28L354,41.89ZM298,41.89l22.55,16.39v68.23l-56.17,40.81-55.27-31.91-5-31.73ZM176.39,159.5l27.86-14.2,57.42,33.15,20.75,63.85-42.93,42.93-24.65-3.9Zm77,161.87-4.72-29.81,42.08-42.08h69.66l42.65,42.65-4.63,29.24Z"/></g></g></svg>